<svg width="327" height="196" viewBox="0 0 327 196" fill="none" xmlns="http://www.w3.org/2000/svg">
<path d="M34.4 47.12H67.76V55.28H34.4V47.12ZM34.24 63.28H67.6V71.76H34.24V63.28ZM35.44 0.959995H44.56V27.76H35.44V0.959995ZM56.8 0.959995H66V27.76H56.8V0.959995ZM46.4 35.2H55.2V67.44H46.4V35.2ZM29.84 31.04H72.56V74.72H63.2V39.44H38.72V75.2H29.84V31.04ZM7.52 7.04H26.16V55.04H7.52V45.76H17.44V16.24H7.52V7.04ZM2.64 7.04H11.36V61.52H2.64V7.04ZM27.92 9.44H49.52V18.32H27.92V9.44ZM52 9.52H75.6V18.32H52V9.52ZM118.4 47.12H151.76V55.28H118.4V47.12ZM118.24 63.28H151.6V71.76H118.24V63.28ZM119.44 0.959995H128.56V27.76H119.44V0.959995ZM140.8 0.959995H150V27.76H140.8V0.959995ZM130.4 35.2H139.2V67.44H130.4V35.2ZM113.84 31.04H156.56V74.72H147.2V39.44H122.72V75.2H113.84V31.04ZM91.52 7.04H110.16V55.04H91.52V45.76H101.44V16.24H91.52V7.04ZM86.64 7.04H95.36V61.52H86.64V7.04ZM111.92 9.44H133.52V18.32H111.92V9.44ZM136 9.52H159.6V18.32H136V9.52ZM194.4 5.43999H210V12.4H194.4V5.43999ZM225.36 5.43999H243.52V12.4H225.36V5.43999ZM207.12 0.0799971H215.36V15.44H207.12V0.0799971ZM221.28 0.0799971H229.6V15.36H221.28V0.0799971ZM226.8 22.64V27.04H232.96V22.64H226.8ZM219.84 16.8H240.16V32.88H219.84V16.8ZM203.68 22.64V27.04H209.6V22.64H203.68ZM196.88 16.8H216.8V32.88H196.88V16.8ZM203.92 47.2H238.32V53.36H203.92V47.2ZM203.92 56.48H238.32V62.64H203.92V56.48ZM203.12 65.84H242.96V72.64H203.12V65.84ZM216.24 41.92H224.56V70.88H216.24V41.92ZM207.44 38.08H241.12V44.08H207.44V75.2H198.96V41.84L202.56 38.08H207.44ZM203.44 31.36L211.04 34C207.44 41.76 201.76 49.76 196 54.72C195.28 52.96 192.96 48.64 191.6 46.8C196.24 42.96 200.8 37.28 203.44 31.36ZM214.96 35.04L223.12 32.88C224.24 35.68 225.52 39.44 226 41.92L217.6 44.48C217.12 42 215.92 37.92 214.96 35.04ZM169.6 15.04H195.12V23.84H169.6V15.04ZM179.28 0.0799971H187.6V75.2H179.28V0.0799971ZM178.64 21.6L183.44 23.84C181.28 36.24 176.88 51.68 171.92 60.08C170.96 57.2 168.96 52.8 167.6 50.24C172.32 43.6 176.72 30.96 178.64 21.6ZM187.36 27.12C188.96 28.96 194.72 36.96 196 38.96L190.88 45.44C189.28 41.52 185.28 33.68 183.28 30.4L187.36 27.12ZM253.28 64.24H326.56V72.72H253.28V64.24ZM254.4 15.2H325.6V23.6H254.4V15.2ZM262.56 40.88H317.6V67.36H308.64V48.96H301.84V67.36H293.04V48.96H286.48V67.36H277.68V48.96H271.04V67.36H262.56V40.88ZM266.24 3.68L274.48 -1.90735e-06C277.76 4 281.2 9.36 282.8 12.88L274.24 17.28C272.8 13.6 269.28 7.84 266.24 3.68ZM304.72 -1.90735e-06L314.48 2.96C311.44 7.92 308.08 12.96 305.28 16.4L297.28 13.68C299.84 9.92 303.04 4.24 304.72 -1.90735e-06ZM296.24 30.96L301.28 24.24C308.96 26.88 320.4 31.36 326.32 34.32L320.88 41.92C315.44 38.8 304.24 34 296.24 30.96ZM277.28 24.32L284 29.12C277.76 33.68 267.04 39.6 259.44 42.96C258.16 40.72 255.84 37.12 253.84 35.12C261.44 32.88 271.92 28.16 277.28 24.32ZM54.32 127.2L61.52 122.24C65.92 126 71.12 131.36 73.52 135.12L65.76 140.56C63.68 136.72 58.64 131.12 54.32 127.2ZM1.92 142.8H74.16V151.92H1.92V142.8ZM0.4 165.44C10.08 164 25.28 161.36 39.28 158.8L40 167.52C27.04 170.24 13.12 173.04 2.8 175.12L0.4 165.44ZM17.12 129.92H26.8V184C26.8 189.2 25.76 191.84 22.48 193.36C19.28 194.88 14.56 195.2 8 195.2C7.6 192.48 6 188.16 4.56 185.44C9.12 185.68 13.76 185.68 15.2 185.6C16.64 185.6 17.12 185.2 17.12 183.84V129.92ZM33.52 120.56L40 128.72C29.6 131.92 15.92 134.08 4.32 135.36C3.84 133.12 2.64 129.52 1.52 127.36C12.8 125.84 25.28 123.36 33.52 120.56ZM41.36 120.72H51.44C50.88 152.96 58.08 185.76 65.36 185.76C67.04 185.76 67.92 181.84 68.4 172.32C70.4 174.56 73.68 176.8 76.24 177.84C74.72 192 71.68 195.52 64.4 195.52C47.84 195.52 41.6 156.64 41.36 120.72ZM63.12 154.56L71.6 158.16C63.28 173.04 50.24 184.96 35.76 192.64C34.32 190.24 31.68 187.04 29.28 184.88C42.96 178.64 56 167.76 63.12 154.56ZM87.28 151.84H157.28V169.28H147.92V159.6H96.16V169.28H87.28V151.84ZM110.48 120.88H118.8V141.6H125.28V120.88H134V148.72H110.48V120.88ZM86.32 128.8H157.92V136.24H86.32V128.8ZM97.2 120.96H105.92V131.76C105.92 138.96 103.2 146.72 92.32 151.52C91.2 149.6 88.72 146.8 86.88 145.28C95.92 142.16 97.2 136.32 97.2 131.76V120.96ZM116.88 160.88H126.4V195.12H116.88V160.88ZM95.12 165.6H143.84V173.2H104.4V190.48H95.12V165.6ZM140.16 165.6H149.6V181.84C149.6 185.92 148.72 188.32 145.68 189.6C142.56 190.88 138.4 190.96 132.72 190.96C132.32 188.48 130.96 184.96 129.76 182.64C133.28 182.8 137.6 182.8 138.64 182.8C139.84 182.8 140.16 182.56 140.16 181.68V165.6ZM138.56 120.72H147.12V139.12C147.12 141.44 147.36 142.24 148.64 142.24C149.52 142.24 152.4 142.24 153.44 142.24C154.72 142.24 156.8 142.08 157.92 141.76C158.08 143.92 158.32 147.04 158.64 149.04C157.36 149.44 155.36 149.52 153.52 149.52C152.24 149.52 148.96 149.52 147.84 149.52C140.16 149.52 138.56 146.48 138.56 139.04V120.72ZM169.6 123.76H201.92V132.64H169.6V123.76ZM179.84 145.76V153.2H191.6V145.76H179.84ZM171.76 138.24H200.16V160.72H171.76V138.24ZM189.6 161.84L198.96 163.84C197.28 169.68 195.6 176 194.16 180.08L186.8 178.24C188 173.76 189.2 166.8 189.6 161.84ZM172.72 164.48L180.4 162.56C182.08 167.04 183.28 172.8 183.52 176.72L175.36 178.8C175.28 174.96 174.24 169.04 172.72 164.48ZM168.24 182.72C176.88 181.2 190 178.48 202.4 175.84L203.2 184C191.84 186.72 179.6 189.52 170.48 191.68L168.24 182.72ZM203.84 123.28H242.72V131.36H203.84V123.28ZM214.56 155.36V160.48H231.68V155.36H214.56ZM214.56 167.04V172.24H231.68V167.04H214.56ZM214.56 143.76V148.88H231.68V143.76H214.56ZM205.76 136.8H240.88V179.2H205.76V136.8ZM217.44 127.76L228.4 128.96C226.88 134 225.2 139.04 223.84 142.48L215.52 140.96C216.32 137.12 217.2 131.68 217.44 127.76ZM213.36 179.6L221.2 184.64C216.8 188.64 209.52 193.04 203.36 195.36C201.92 193.6 199.12 190.88 197.04 189.2C203.04 187.12 210 182.88 213.36 179.6ZM224.4 184.8L231.68 180.24C236 183.04 242.08 187.36 245.2 190.24L237.52 195.28C234.8 192.4 228.88 187.84 224.4 184.8Z" fill="white"/>
</svg>
