<svg width="1061" height="566" viewBox="0 0 1061 566" fill="none" xmlns="http://www.w3.org/2000/svg">
<path d="M110.8 153.14H219.22V179.66H110.8V153.14ZM110.28 205.66H218.7V233.22H110.28V205.66ZM114.18 3.11998H143.82V90.22H114.18V3.11998ZM183.6 3.11998H213.5V90.22H183.6V3.11998ZM149.8 114.4H178.4V219.18H149.8V114.4ZM95.98 100.88H234.82V242.84H204.4V128.18H124.84V244.4H95.98V100.88ZM23.44 22.88H84.02V178.88H23.44V148.72H55.68V52.78H23.44V22.88ZM7.58 22.88H35.92V199.94H7.58V22.88ZM89.74 30.68H159.94V59.54H89.74V30.68ZM168 30.94H244.7V59.54H168V30.94ZM383.8 153.14H492.22V179.66H383.8V153.14ZM383.28 205.66H491.7V233.22H383.28V205.66ZM387.18 3.11998H416.82V90.22H387.18V3.11998ZM456.6 3.11998H486.5V90.22H456.6V3.11998ZM422.8 114.4H451.4V219.18H422.8V114.4ZM368.98 100.88H507.82V242.84H477.4V128.18H397.84V244.4H368.98V100.88ZM296.44 22.88H357.02V178.88H296.44V148.72H328.68V52.78H296.44V22.88ZM280.58 22.88H308.92V199.94H280.58V22.88ZM362.74 30.68H432.94V59.54H362.74V30.68ZM441 30.94H517.7V59.54H441V30.94ZM630.8 17.68H681.5V40.3H630.8V17.68ZM731.42 17.68H790.44V40.3H731.42V17.68ZM672.14 0.25999H698.92V50.18H672.14V0.25999ZM718.16 0.25999H745.2V49.92H718.16V0.25999ZM736.1 73.58V87.88H756.12V73.58H736.1ZM713.48 54.6H779.52V106.86H713.48V54.6ZM660.96 73.58V87.88H680.2V73.58H660.96ZM638.86 54.6H703.6V106.86H638.86V54.6ZM661.74 153.4H773.54V173.42H661.74V153.4ZM661.74 183.56H773.54V203.58H661.74V183.56ZM659.14 213.98H788.62V236.08H659.14V213.98ZM701.78 136.24H728.82V230.36H701.78V136.24ZM673.18 123.76H782.64V143.26H673.18V244.4H645.62V135.98L657.32 123.76H673.18ZM660.18 101.92L684.88 110.5C673.18 135.72 654.72 161.72 636 177.84C633.66 172.12 626.12 158.08 621.7 152.1C636.78 139.62 651.6 121.16 660.18 101.92ZM697.62 113.88L724.14 106.86C727.78 115.96 731.94 128.18 733.5 136.24L706.2 144.56C704.64 136.5 700.74 123.24 697.62 113.88ZM550.2 48.88H633.14V77.48H550.2V48.88ZM581.66 0.25999H608.7V244.4H581.66V0.25999ZM579.58 70.2L595.18 77.48C588.16 117.78 573.86 167.96 557.74 195.26C554.62 185.9 548.12 171.6 543.7 163.28C559.04 141.7 573.34 100.62 579.58 70.2ZM607.92 88.14C613.12 94.12 631.84 120.12 636 126.62L619.36 147.68C614.16 134.94 601.16 109.46 594.66 98.8L607.92 88.14ZM822.16 208.78H1060.32V236.34H822.16V208.78ZM825.8 49.4H1057.2V76.7H825.8V49.4ZM852.32 132.86H1031.2V218.92H1002.08V159.12H979.98V218.92H951.38V159.12H930.06V218.92H901.46V159.12H879.88V218.92H852.32V132.86ZM864.28 11.96L891.06 -6.19888e-06C901.72 13 912.9 30.42 918.1 41.86L890.28 56.16C885.6 44.2 874.16 25.48 864.28 11.96ZM989.34 -6.19888e-06L1021.06 9.61999C1011.18 25.74 1000.26 42.12 991.16 53.3L965.16 44.46C973.48 32.24 983.88 13.78 989.34 -6.19888e-06ZM961.78 100.62L978.16 78.78C1003.12 87.36 1040.3 101.92 1059.54 111.54L1041.86 136.24C1024.18 126.1 987.78 110.5 961.78 100.62ZM900.16 79.04L922 94.64C901.72 109.46 866.88 128.7 842.18 139.62C838.02 132.34 830.48 120.64 823.98 114.14C848.68 106.86 882.74 91.52 900.16 79.04ZM175.54 343.4L198.94 327.28C213.24 339.5 230.14 356.92 237.94 369.14L212.72 386.82C205.96 374.34 189.58 356.14 175.54 343.4ZM5.24 394.1H240.02V423.74H5.24V394.1ZM0.3 467.68C31.76 463 81.16 454.42 126.66 446.1L129 474.44C86.88 483.28 41.64 492.38 8.1 499.14L0.3 467.68ZM54.64 352.24H86.1V528C86.1 544.9 82.72 553.48 72.06 558.42C61.66 563.36 46.32 564.4 25 564.4C23.7 555.56 18.5 541.52 13.82 532.68C28.64 533.46 43.72 533.46 48.4 533.2C53.08 533.2 54.64 531.9 54.64 527.48V352.24ZM107.94 321.82L129 348.34C95.2 358.74 50.74 365.76 13.04 369.92C11.48 362.64 7.58 350.94 3.94 343.92C40.6 338.98 81.16 330.92 107.94 321.82ZM133.42 322.34H166.18C164.36 427.12 187.76 533.72 211.42 533.72C216.88 533.72 219.74 520.98 221.3 490.04C227.8 497.32 238.46 504.6 246.78 507.98C241.84 554 231.96 565.44 208.3 565.44C154.48 565.44 134.2 439.08 133.42 322.34ZM204.14 432.32L231.7 444.02C204.66 492.38 162.28 531.12 115.22 556.08C110.54 548.28 101.96 537.88 94.16 530.86C138.62 510.58 181 475.22 204.14 432.32ZM282.66 423.48H510.16V480.16H479.74V448.7H311.52V480.16H282.66V423.48ZM358.06 322.86H385.1V390.2H406.16V322.86H434.5V413.34H358.06V322.86ZM279.54 348.6H512.24V372.78H279.54V348.6ZM314.9 323.12H343.24V358.22C343.24 381.62 334.4 406.84 299.04 422.44C295.4 416.2 287.34 407.1 281.36 402.16C310.74 392.02 314.9 373.04 314.9 358.22V323.12ZM378.86 452.86H409.8V564.14H378.86V452.86ZM308.14 468.2H466.48V492.9H338.3V549.06H308.14V468.2ZM454.52 468.2H485.2V520.98C485.2 534.24 482.34 542.04 472.46 546.2C462.32 550.36 448.8 550.62 430.34 550.62C429.04 542.56 424.62 531.12 420.72 523.58C432.16 524.1 446.2 524.1 449.58 524.1C453.48 524.1 454.52 523.32 454.52 520.46V468.2ZM449.32 322.34H477.14V382.14C477.14 389.68 477.92 392.28 482.08 392.28C484.94 392.28 494.3 392.28 497.68 392.28C501.84 392.28 508.6 391.76 512.24 390.72C512.76 397.74 513.54 407.88 514.58 414.38C510.42 415.68 503.92 415.94 497.94 415.94C493.78 415.94 483.12 415.94 479.48 415.94C454.52 415.94 449.32 406.06 449.32 381.88V322.34ZM550.2 332.22H655.24V361.08H550.2V332.22ZM583.48 403.72V427.9H621.7V403.72H583.48ZM557.22 379.28H649.52V452.34H557.22V379.28ZM615.2 455.98L645.62 462.48C640.16 481.46 634.7 502 630.02 515.26L606.1 509.28C610 494.72 613.9 472.1 615.2 455.98ZM560.34 464.56L585.3 458.32C590.76 472.88 594.66 491.6 595.44 504.34L568.92 511.1C568.66 498.62 565.28 479.38 560.34 464.56ZM545.78 523.84C573.86 518.9 616.5 510.06 656.8 501.48L659.4 528C622.48 536.84 582.7 545.94 553.06 552.96L545.78 523.84ZM661.48 330.66H787.84V356.92H661.48V330.66ZM696.32 434.92V451.56H751.96V434.92H696.32ZM696.32 472.88V489.78H751.96V472.88H696.32ZM696.32 397.22V413.86H751.96V397.22H696.32ZM667.72 374.6H781.86V512.4H667.72V374.6ZM705.68 345.22L741.3 349.12C736.36 365.5 730.9 381.88 726.48 393.06L699.44 388.12C702.04 375.64 704.9 357.96 705.68 345.22ZM692.42 513.7L717.9 530.08C703.6 543.08 679.94 557.38 659.92 564.92C655.24 559.2 646.14 550.36 639.38 544.9C658.88 538.14 681.5 524.36 692.42 513.7ZM728.3 530.6L751.96 515.78C766 524.88 785.76 538.92 795.9 548.28L770.94 564.66C762.1 555.3 742.86 540.48 728.3 530.6Z" fill="white"/>
</svg>
