<svg width="32" height="32" viewBox="0 0 32 32" fill="none" xmlns="http://www.w3.org/2000/svg">
<g clip-path="url(#clip0_104_1925)">
<path d="M20 16L14 12V20L20 16Z" stroke="black" stroke-width="2" stroke-linecap="round" stroke-linejoin="round"/>
<path d="M3 16C3 19.7388 3.38375 21.9313 3.67625 23.0588C3.7536 23.3654 3.90258 23.6494 4.11096 23.8873C4.31935 24.1253 4.58119 24.3104 4.875 24.4275C9.065 26.0438 16 26 16 26C16 26 22.935 26.0438 27.125 24.4275C27.4197 24.311 27.6826 24.1262 27.8919 23.8882C28.1012 23.6503 28.2509 23.366 28.3288 23.0588C28.6213 21.9338 29.005 19.7388 29.005 16C29.005 12.2613 28.6213 10.0688 28.3288 8.94125C28.2518 8.63291 28.1024 8.34734 27.8931 8.10823C27.6838 7.86911 27.4205 7.68332 27.125 7.56625C22.935 5.95625 16 6 16 6C16 6 9.065 5.95625 4.875 7.5725C4.57954 7.68957 4.31623 7.87536 4.1069 8.11448C3.89756 8.35359 3.74822 8.63916 3.67125 8.9475C3.38375 10.0675 3 12.2613 3 16Z" stroke="black" stroke-width="2" stroke-linecap="round" stroke-linejoin="round"/>
</g>
<defs>
<clipPath id="clip0_104_1925">
<rect width="32" height="32" fill="white"/>
</clipPath>
</defs>
</svg>
